<svg xmlns="http://www.w3.org/2000/svg" width="212.993" height="26.334" viewBox="0 0 212.993 26.334" role="img" aria-label="WAFERLOCK"><g transform="translate(-675.682 -48.68)"><g transform="translate(675.682 39.447)"><g transform="translate(0 9.233)"><path d="M775.744,52.722v4.707H764.166v5.812h11.578v4.707H764.166V78.4h-5.543V52.722Z" transform="translate(-698.879 -52.393)" fill="#48086b"/><path d="M805.321,73.691v4.7h-18.06V52.722h17.984v4.707H792.8v5.812h12.441v4.7H792.8v5.747Z" transform="translate(-706.888 -52.393)" fill="#48086b"/><path d="M817.17,52.722h11.737a6.87,6.87,0,0,1,5.259,2.16,7.37,7.37,0,0,1,2.023,5.225,6.678,6.678,0,0,1-3.824,6.282q1.678.88,3.186,4.735c1.01,2.568,1.957,4.924,2.918,7.272h-5.925c-.335-.9-.928-2.458-1.83-4.833a14.5,14.5,0,0,0-2.547-4.576,2.837,2.837,0,0,0-2.062-1.009h-3.391V78.4H817.17Zm5.545,4.707v5.845h4.728a3.136,3.136,0,0,0,2.223-.764,2.828,2.828,0,0,0,.822-2.175q0-2.908-3.172-2.905Z" transform="translate(-715.253 -52.393)" fill="#48086b"/><path d="M868.643,73.691v4.7H851.671V52.722h5.549V73.691Z" transform="translate(-724.902 -52.393)" fill="#48086b"/><path d="M884.191,52.265a11.741,11.741,0,0,1,9.209,3.961,13.438,13.438,0,0,1,3.521,9.216,13.266,13.266,0,0,1-3.568,9.243,12.751,12.751,0,0,1-18.368.018,13.273,13.273,0,0,1-3.558-9.261,13.412,13.412,0,0,1,3.53-9.224A11.784,11.784,0,0,1,884.191,52.265Zm0,21a6.489,6.489,0,0,0,5.083-2.157,8.2,8.2,0,0,0,1.928-5.67,8.2,8.2,0,0,0-1.928-5.68,7.108,7.108,0,0,0-10.188,0,8.183,8.183,0,0,0-1.936,5.68,8.183,8.183,0,0,0,1.936,5.67A6.529,6.529,0,0,0,884.191,73.269Z" transform="translate(-730.428 -52.265)" fill="#48086b"/><path d="M928.4,70.44v5.606a16.519,16.519,0,0,1-8.747,2.554,12.272,12.272,0,0,1-9.44-3.776,13.922,13.922,0,0,1,.192-18.7,12.808,12.808,0,0,1,9.677-3.859,13.9,13.9,0,0,1,8.061,2.263V60.24a14.177,14.177,0,0,0-7.663-2.629,7.982,7.982,0,0,0-5.807,2.194,7.5,7.5,0,0,0-2.252,5.6,7.607,7.607,0,0,0,7.916,7.863,10.5,10.5,0,0,0,3.316-.524A29.875,29.875,0,0,0,928.4,70.44Z" transform="translate(-740.293 -52.265)" fill="#48086b"/><path d="M963.1,52.722,952.915,64.8,963.1,78.4h-6.932l-8.825-12.034V78.4H941.8V52.722h5.544v11.56L957,52.722Z" transform="translate(-750.11 -52.393)" fill="#48086b"/><path d="M715.46,52.722h-5.6L704.106,69.3l-6.327-16.582H693.4L687.089,69.3l-5.8-16.582h-5.609l9.131,25.673h4.351l6.13-15.749.282-.727,6.447,16.477h4.348Z" transform="translate(-675.682 -52.393)" fill="#48086b"/><path d="M748.834,78.395l-9.885-25.673h-6.425l-8.991,25.673h5.878l1.66-5.068h0l1.47-4.485h0l3.27-9.979,2.79,7.716h0l3.393,9.382h0l.88,2.434Z" transform="translate(-689.065 -52.393)" fill="#48086b"/></g></g></g></svg>
